<?xml version="1.0" standalone="no"?>
<!DOCTYPE svg PUBLIC "-//W3C//DTD SVG 20010904//EN"
 "http://www.w3.org/TR/2001/REC-SVG-20010904/DTD/svg10.dtd">
<svg version="1.0" xmlns="http://www.w3.org/2000/svg"
 width="1152.000000pt" height="648.000000pt" viewBox="0 0 1152.000000 648.000000"
 preserveAspectRatio="xMidYMid meet">

<g transform="translate(0.000000,648.000000) scale(0.100000,-0.100000)"
fill="#000000" stroke="none">
<path d="M0 6446 c0 -26 5 -36 20 -41 11 -3 20 -13 20 -21 0 -8 4 -12 10 -9 6
3 10 -1 10 -10 0 -9 3 -14 8 -12 9 6 33 -19 25 -27 -4 -3 -1 -6 5 -6 7 0 12
-6 12 -13 0 -7 5 -18 12 -25 6 -6 12 -30 14 -53 2 -23 9 -46 16 -51 7 -4 9 -8
4 -8 -20 0 19 -30 40 -30 12 0 26 -5 29 -10 5 -8 11 -8 19 -1 7 6 17 7 21 3 5
-4 5 -2 2 4 -4 7 1 18 10 25 14 12 16 12 8 0 -5 -10 -4 -12 3 -7 7 4 12 17 12
28 0 12 2 19 5 16 8 -8 95 83 89 93 -3 5 -1 9 5 9 17 0 60 53 72 87 6 18 15
33 21 33 6 0 8 9 5 20 -3 11 -1 20 4 20 5 0 9 5 9 10 0 6 -92 10 -255 10
l-255 0 0 -34z"/>
<path d="M1449 6466 c9 -10 9 -16 1 -21 -8 -5 -8 -10 0 -20 8 -9 8 -15 0 -20
-6 -3 -7 -12 -3 -18 9 -14 10 -19 12 -48 0 -11 6 -17 11 -14 9 6 14 -8 11 -27
0 -5 4 -7 11 -5 7 1 12 -7 13 -19 0 -11 8 -31 18 -45 10 -13 15 -18 12 -11 -7
13 26 17 39 5 4 -5 12 -8 17 -8 5 0 9 -4 10 -10 0 -5 6 -16 12 -24 9 -12 9
-13 0 -7 -8 4 -13 1 -13 -9 0 -10 -5 -13 -12 -9 -9 5 -9 2 1 -9 14 -18 23 -22
18 -9 -1 4 1 8 6 10 18 6 19 1 3 -17 -9 -10 -18 -28 -19 -39 -1 -14 -5 -18
-12 -12 -7 6 -11 2 -12 -11 -1 -11 2 -17 7 -14 5 3 12 0 16 -6 4 -7 3 -9 -3
-6 -10 7 -23 -12 -29 -42 -3 -15 -25 -32 -34 -26 -3 2 -6 -5 -6 -16 0 -11 5
-18 12 -15 14 5 40 -21 30 -31 -3 -3 -6 -1 -6 4 0 9 -20 11 -40 3 -3 -1 -9 -2
-14 -1 -5 1 -4 -4 1 -11 8 -10 8 -18 -3 -32 -12 -17 -14 -18 -14 -3 0 9 5 17
12 17 6 0 9 3 6 6 -3 3 -22 -1 -41 -10 -38 -15 -75 -70 -56 -81 6 -4 8 -13 5
-20 -3 -9 2 -13 15 -12 22 1 25 26 7 47 -11 12 -10 12 5 1 9 -7 17 -22 17 -33
0 -18 1 -18 16 -4 8 9 21 13 27 9 7 -3 4 3 -6 14 -14 16 -15 23 -6 29 7 4 10
3 5 -4 -9 -15 14 -26 27 -13 9 9 8 14 -3 21 -10 7 -11 10 -2 10 20 0 27 -4 24
-14 -2 -5 3 -4 11 2 8 7 18 8 23 4 4 -4 2 2 -6 12 -14 18 -14 19 7 8 30 -16
38 -15 23 3 -10 12 -10 15 4 15 9 0 16 5 16 11 0 5 5 7 10 4 6 -4 9 -1 8 7 -2
7 3 12 11 10 12 -3 12 0 2 12 -11 13 -9 14 17 6 26 -7 30 -6 26 8 -5 14 -4 14
6 -1 6 -9 16 -14 22 -11 6 4 8 3 5 -3 -8 -12 39 -67 51 -59 5 3 15 -1 22 -9 7
-8 9 -15 5 -15 -4 0 -2 -6 4 -14 7 -8 21 -12 33 -8 17 4 20 2 15 -12 -5 -12
-3 -16 5 -14 7 3 18 -1 24 -7 7 -6 25 -23 42 -36 16 -14 42 -44 57 -67 15 -23
31 -42 35 -42 4 0 15 -20 25 -44 11 -26 23 -42 29 -39 6 4 5 -1 -3 -10 -8 -10
-11 -20 -7 -24 3 -3 6 -1 6 5 0 9 5 9 19 0 16 -10 18 -16 9 -32 -10 -19 -11
-19 -24 -1 -8 10 -17 15 -21 12 -4 -4 -20 5 -36 20 -21 20 -28 23 -24 10 6
-16 4 -16 -21 -4 -15 7 -31 13 -37 12 -25 -4 -44 -18 -49 -38 -5 -19 -8 -20
-16 -7 -8 11 -9 9 -6 -12 3 -15 1 -30 -4 -33 -5 -3 -7 -18 -4 -33 3 -19 2 -23
-5 -13 -5 8 -8 22 -6 32 2 10 -4 24 -13 31 -13 11 -14 11 -7 -2 5 -8 10 -25
11 -37 1 -27 31 -90 47 -99 7 -5 5 1 -3 12 -14 18 -14 18 3 5 10 -8 16 -19 13
-26 -2 -6 5 -17 16 -24 16 -10 19 -10 12 1 -6 10 -4 10 9 -1 13 -10 17 -10 17
-1 0 9 4 9 13 2 13 -10 55 -10 73 0 19 13 59 -6 59 -27 0 -13 6 -19 18 -17 9
2 17 -2 17 -7 0 -6 14 -17 30 -26 17 -9 30 -12 30 -9 0 4 9 -1 20 -11 11 -10
20 -14 20 -10 0 5 14 -4 30 -20 17 -16 38 -31 48 -33 30 -8 296 -7 315 1 11 5
17 3 17 -4 0 -8 4 -8 13 -2 6 5 48 9 92 8 88 -2 172 -31 195 -69 l13 -21 -24
20 -24 20 18 -21 c20 -24 51 -28 42 -5 -4 11 0 10 15 -4 11 -10 18 -25 15 -32
-2 -8 0 -11 5 -8 6 3 10 1 10 -5 0 -7 7 -9 15 -6 11 4 19 -3 25 -19 5 -14 12
-25 15 -25 4 0 3 5 0 11 -4 6 2 5 14 -3 12 -7 21 -16 21 -21 0 -4 -6 -5 -12
-1 -10 6 -9 3 0 -8 8 -9 20 -14 27 -12 17 7 34 -24 29 -53 -2 -13 0 -23 4 -23
5 0 8 -18 8 -40 -1 -22 3 -40 9 -40 5 0 3 -5 -5 -10 -13 -9 -13 -12 2 -20 9
-6 15 -18 14 -27 -3 -21 17 -43 38 -43 9 0 16 -3 16 -7 0 -12 51 -33 79 -33
19 0 22 -3 12 -9 -9 -6 -10 -11 -2 -15 6 -4 11 -4 11 0 0 4 13 -4 28 -19 16
-15 30 -26 33 -25 2 2 3 1 1 -1 -1 -3 8 -15 20 -28 12 -13 18 -23 14 -23 -5 0
-4 -6 2 -12 6 -7 12 -29 14 -48 2 -21 12 -42 26 -54 13 -10 21 -21 17 -24 -3
-3 6 -18 21 -33 14 -15 25 -30 24 -33 0 -4 8 -26 20 -49 18 -36 47 -63 104
-99 12 -7 83 -39 134 -60 17 -7 32 -17 32 -23 0 -6 10 -15 23 -20 12 -6 21
-17 19 -24 -2 -9 4 -12 18 -8 11 3 20 1 20 -4 0 -5 7 -9 15 -9 17 0 37 -34 27
-45 -4 -5 -2 -5 5 -2 13 8 12 24 -2 47 -8 13 -7 13 8 1 9 -7 15 -17 12 -21 -3
-4 2 -13 10 -20 8 -7 13 -16 10 -20 -3 -5 4 -6 15 -3 11 3 17 10 13 17 -4 6 0
5 9 -2 9 -7 15 -22 13 -34 -4 -17 -2 -18 12 -6 15 11 16 11 10 -6 -5 -14 -3
-17 8 -13 8 4 17 1 21 -5 4 -6 3 -8 -4 -4 -6 3 -13 2 -16 -3 -7 -10 13 -9 30
2 7 4 17 0 24 -8 7 -8 16 -12 21 -9 5 3 6 -3 2 -12 -5 -12 -3 -15 6 -9 10 5
11 2 6 -14 -4 -13 -2 -21 5 -21 6 0 8 -5 4 -12 -5 -8 0 -7 11 2 10 8 20 14 22
13 10 -8 33 -1 28 7 -5 8 -11 8 -20 0 -9 -8 -15 -8 -20 0 -3 5 -5 10 -3 11 29
7 41 3 56 -16 20 -26 41 -21 36 8 -1 11 1 16 4 12 4 -4 7 -16 7 -28 1 -13 6
-21 14 -19 7 1 10 -2 6 -8 -4 -6 4 -19 16 -29 17 -14 18 -18 6 -18 -9 0 -14 4
-11 9 5 8 -9 12 -33 9 -7 -1 -13 3 -13 9 0 6 5 8 10 5 6 -3 10 -2 10 4 0 15
-16 22 -35 15 -13 -6 -7 -16 36 -58 29 -28 57 -50 63 -48 5 2 3 -5 -5 -14 -12
-16 -12 -17 5 -11 14 6 17 4 12 -8 -3 -9 -2 -14 3 -11 11 7 36 -22 27 -31 -3
-3 -6 -1 -6 6 0 7 -5 9 -10 6 -16 -10 0 -27 20 -22 19 5 35 -17 25 -33 -3 -5
5 -16 17 -24 17 -12 19 -19 11 -27 -9 -9 -8 -15 2 -25 16 -16 8 -57 -9 -47 -7
4 -6 1 1 -9 7 -8 9 -19 5 -24 -4 -4 0 -3 8 3 13 10 16 7 18 -15 1 -21 0 -24
-8 -12 -7 12 -10 7 -11 -17 -2 -52 -4 -58 -18 -55 -7 1 -10 -2 -6 -8 7 -12
-55 -51 -68 -43 -6 4 -7 1 -1 -8 10 -16 15 -44 7 -36 -10 10 -30 -17 -26 -34
3 -9 0 -20 -6 -23 -5 -4 -7 -14 -4 -23 4 -11 3 -14 -5 -9 -7 4 -12 1 -12 -6 0
-8 -13 -32 -30 -55 -16 -22 -26 -44 -22 -48 4 -5 2 -5 -4 -2 -14 8 -38 -37
-30 -58 3 -9 2 -14 -3 -11 -8 5 -13 -10 -27 -82 -1 -7 -12 -21 -23 -31 -17
-15 -19 -20 -7 -24 17 -7 16 -28 -3 -51 -10 -12 -11 -16 -1 -16 9 0 9 -4 -1
-17 -12 -14 -12 -16 0 -8 11 6 13 4 8 -7 -3 -9 0 -21 6 -28 9 -9 9 -11 1 -7
-15 9 -24 -15 -24 -64 0 -30 3 -38 13 -33 9 6 9 4 -1 -8 -10 -13 -10 -18 -1
-24 8 -5 9 -3 4 6 -5 9 -4 11 4 6 6 -4 8 -13 4 -19 -4 -7 -8 -19 -8 -27 0 -8
-4 -21 -9 -29 -7 -10 -6 -12 4 -6 10 6 12 3 7 -14 -4 -17 -3 -20 7 -12 10 8
13 5 12 -12 -1 -12 -4 -26 -7 -32 -5 -9 -5 -31 1 -37 10 -13 5 -40 -11 -54
-10 -9 -15 -22 -12 -28 4 -6 9 -20 11 -31 3 -20 3 -20 -13 0 -11 14 -13 15 -9
4 3 -10 1 -20 -5 -24 -6 -3 -11 -11 -11 -17 0 -6 7 -5 18 3 16 13 16 13 -1 -7
-9 -11 -14 -24 -10 -27 3 -4 -1 -7 -10 -7 -9 0 -17 -5 -17 -11 0 -6 7 -8 16
-5 13 5 14 4 6 -7 -7 -8 -8 -18 -4 -22 4 -5 1 -5 -5 -1 -8 4 -13 1 -13 -9 0
-9 -4 -13 -10 -10 -5 3 -10 -2 -11 -12 0 -16 -1 -16 -9 2 -8 18 -9 17 -9 -8
-1 -16 3 -26 8 -22 5 3 13 1 16 -5 4 -6 1 -9 -6 -8 -8 2 -13 -6 -14 -19 0 -12
-4 -25 -9 -30 -5 -4 -6 -3 -2 4 3 6 3 14 -2 17 -13 8 -11 -28 2 -36 8 -5 7 -8
-1 -8 -7 0 -13 -9 -13 -21 0 -11 -4 -18 -8 -15 -11 7 -9 -35 2 -53 6 -9 5 -12
-1 -8 -10 7 -28 -8 -35 -28 -1 -5 -6 -9 -10 -8 -8 3 -4 -24 5 -33 4 -4 1 -14
-6 -22 -9 -12 -9 -16 0 -19 10 -4 10 -7 0 -18 -7 -7 -16 -10 -22 -7 -5 2 -4
-1 3 -9 16 -17 16 -30 0 -28 -31 5 -88 -37 -88 -63 0 -9 3 -9 10 2 7 11 10 11
10 2 0 -8 5 -10 13 -6 8 5 7 2 -2 -9 -13 -17 -15 -17 -33 0 -11 10 -19 13 -18
8 5 -23 -1 -56 -8 -51 -5 3 -8 -5 -7 -17 1 -12 6 -20 11 -17 5 3 8 8 7 11 -1
3 5 6 13 6 8 0 12 -3 9 -5 -3 -3 0 -11 6 -18 8 -10 6 -12 -11 -9 -16 3 -20 0
-18 -13 2 -9 10 -17 18 -17 8 -1 14 -7 12 -15 -3 -11 0 -11 12 -1 9 7 16 8 20
2 4 -5 1 -13 -4 -16 -8 -5 -6 -13 6 -26 9 -10 14 -19 9 -19 -4 0 -2 -7 5 -15
9 -11 16 -12 25 -5 6 5 15 7 18 3 4 -3 7 0 7 8 0 12 2 12 9 0 5 -8 7 -20 4
-28 -4 -11 -8 -10 -19 4 -12 16 -12 16 -7 -7 6 -23 5 -24 -11 -11 -15 12 -17
12 -14 0 2 -8 -3 -13 -12 -11 -8 2 -11 0 -7 -5 5 -4 14 -8 20 -8 14 0 17 -25
5 -42 -6 -8 -3 -11 8 -9 12 2 19 12 19 29 1 16 -2 24 -9 20 -6 -3 -7 -2 -3 2
23 25 42 7 24 -22 -9 -14 2 -21 26 -17 18 2 18 2 1 -17 -10 -11 -20 -32 -22
-47 -5 -38 -12 -41 -12 -4 0 17 5 34 10 37 6 4 8 11 4 16 -8 14 -44 -20 -43
-40 0 -12 3 -11 8 4 6 16 9 11 12 -23 3 -27 0 -47 -8 -54 -7 -6 -11 -14 -8
-18 3 -5 0 -12 -6 -16 -7 -4 -9 -3 -6 3 3 5 0 10 -8 10 -11 0 -12 -4 -4 -14 6
-7 8 -13 4 -13 -4 0 -2 -7 5 -15 7 -8 9 -15 5 -15 -4 0 -2 -6 4 -14 9 -11 9
-16 0 -22 -7 -4 -9 -3 -6 3 3 5 0 10 -8 10 -13 0 -12 -4 2 -19 15 -17 21 -83
8 -96 -3 -3 0 -11 6 -19 6 -7 8 -13 4 -13 -4 0 -2 -7 5 -15 10 -12 10 -15 0
-15 -8 0 -10 -10 -6 -33 10 -49 7 -79 -7 -93 -10 -11 -8 15 3 36 7 14 6 18 -5
16 -8 -1 -18 -6 -22 -11 -4 -4 -3 -5 4 -1 9 5 10 -4 6 -31 -3 -21 -9 -42 -14
-47 -4 -5 -6 2 -3 15 4 21 3 22 -5 4 -5 -11 -5 -24 -1 -29 5 -5 4 -20 -1 -35
-8 -19 -7 -23 1 -15 6 6 12 20 13 32 0 11 5 18 9 16 4 -3 1 -21 -7 -41 -8 -19
-15 -44 -15 -55 0 -11 -5 -16 -10 -13 -7 4 -9 -3 -6 -19 3 -14 0 -28 -5 -32
-5 -3 -7 -9 -4 -14 3 -5 0 -12 -6 -16 -8 -5 -9 -3 -4 7 5 8 4 11 -1 6 -5 -5
-10 -13 -10 -18 -1 -5 -2 -10 -4 -11 -1 -2 -3 -11 -5 -21 -8 -44 -14 -50 -32
-36 -15 12 -16 12 -11 -8 7 -25 -18 -67 -36 -60 -7 3 -13 -1 -13 -9 0 -7 4
-11 8 -8 4 2 11 -1 15 -7 4 -8 3 -9 -4 -5 -7 4 -12 1 -12 -8 0 -8 -4 -18 -10
-21 -6 -3 -7 1 -4 10 5 11 2 14 -10 9 -9 -3 -14 -10 -11 -14 3 -5 1 -11 -5
-15 -6 -4 -8 -10 -5 -15 6 -9 -12 -23 -32 -26 -7 -1 -13 2 -13 7 0 5 -4 9 -10
9 -6 0 -6 -9 0 -24 7 -19 5 -28 -7 -38 -9 -7 -14 -8 -10 -2 4 7 -2 14 -14 17
-16 4 -18 3 -9 -7 12 -16 -12 -42 -30 -31 -5 3 -10 1 -10 -5 0 -6 -5 -8 -12
-4 -7 4 -8 3 -4 -5 4 -6 13 -8 19 -5 7 4 1 -4 -12 -16 -32 -32 -131 -79 -150
-73 -14 4 -14 4 -1 -6 8 -6 13 -11 10 -11 -32 -5 -82 -7 -72 -3 6 2 12 9 12
15 0 6 -9 3 -21 -8 -12 -10 -23 -18 -25 -16 -7 4 -100 -46 -113 -62 -7 -9 -16
-14 -20 -12 -3 2 -19 -9 -36 -25 l-30 -29 4178 0 4177 0 0 3240 0 3240 -5041
0 c-4326 0 -5040 -2 -5030 -14z m187 -8 c4 -7 3 -8 -4 -4 -7 4 -12 2 -12 -5 0
-7 -3 -10 -6 -6 -6 5 3 27 11 27 2 0 7 -5 11 -12z m-1 -55 c-1 -10 2 -24 7
-30 7 -9 5 -15 -7 -19 -11 -5 -13 -9 -5 -14 6 -4 12 -20 13 -36 1 -21 -2 -29
-15 -29 -10 0 -18 4 -17 10 0 5 -8 12 -18 16 -17 7 -17 8 2 9 19 1 18 2 -2 10
-13 5 -23 17 -23 25 0 9 4 13 10 10 10 -6 44 27 46 45 2 16 4 20 8 20 2 0 3
-8 1 -17z m-15 -137 c0 13 24 -14 26 -30 3 -25 -21 -39 -36 -21 -7 8 -18 15
-26 15 -21 0 -25 17 -8 35 12 12 19 13 30 4 8 -6 14 -8 14 -3z m221 -49 c-6
-8 -8 -16 -5 -20 3 -3 -1 -4 -10 -3 -17 2 -23 21 -7 21 5 0 13 3 17 8 13 12
17 8 5 -6z m2160 -2220 c-6 -8 -7 -18 -3 -22 4 -5 1 -5 -6 -1 -10 6 -10 11 -1
22 6 8 14 14 16 14 3 0 0 -6 -6 -13z m344 -266 c3 -5 2 -12 -3 -15 -5 -3 -9 1
-9 9 0 17 3 19 12 6z m132 -380 c0 -11 -5 -18 -9 -15 -4 3 -5 11 -1 19 7 21
12 19 10 -4z m-292 -700 c3 -5 2 -12 -3 -15 -5 -3 -9 1 -9 9 0 17 3 19 12 6z
m-134 -856 c17 11 9 -1 -16 -25 -21 -19 -25 -21 -25 -7 0 9 6 17 14 17 8 0 12
9 11 23 -1 12 0 14 2 4 2 -9 9 -15 14 -12z m19 -30 c0 -2 -9 -9 -20 -15 -12
-6 -20 -7 -20 -1 0 5 8 12 18 14 9 3 18 5 20 6 1 0 2 -1 2 -4z m-90 -29 c0 -2
-8 -10 -17 -17 -16 -13 -17 -12 -4 4 13 16 21 21 21 13z m0 -276 c0 -5 -2 -10
-4 -10 -3 0 -8 5 -11 10 -3 6 -1 10 4 10 6 0 11 -4 11 -10z"/>
<path d="M1588 6333 c7 -3 16 -2 19 1 4 3 -2 6 -13 5 -11 0 -14 -3 -6 -6z"/>
<path d="M1616 6252 c-3 -5 1 -9 9 -9 8 0 12 4 9 9 -3 4 -7 8 -9 8 -2 0 -6 -4
-9 -8z"/>
<path d="M694 6262 c6 -10 1 -11 -18 -6 -26 6 -36 -8 -15 -22 8 -4 7 -9 -2
-15 -11 -7 -10 -9 4 -9 9 0 17 -5 17 -11 0 -5 -4 -7 -10 -4 -5 3 -10 2 -10 -4
0 -5 15 -13 33 -16 17 -4 37 -11 43 -16 6 -5 10 1 10 16 0 13 -6 27 -14 30 -8
3 -10 0 -6 -8 4 -6 3 -9 -1 -5 -5 5 -10 20 -11 34 -2 15 -8 32 -15 38 -9 8
-10 8 -5 -2z"/>
<path d="M1201 6224 c0 -11 3 -14 6 -6 3 7 2 16 -1 19 -3 4 -6 -2 -5 -13z"/>
<path d="M1224 6201 c1 -17 33 -23 43 -9 3 7 1 8 -5 4 -7 -4 -12 -1 -12 6 0
10 -2 10 -9 -1 -8 -12 -10 -12 -13 0 -4 12 -5 12 -4 0z"/>
<path d="M1560 6202 c0 -16 28 -34 34 -23 4 6 -3 15 -14 21 -11 6 -20 7 -20 2z"/>
<path d="M1553 6059 c3 -9 -1 -26 -9 -37 -9 -13 -11 -23 -4 -27 5 -3 11 -4 11
-1 1 3 2 9 3 14 1 4 5 13 9 19 5 7 3 21 -3 30 -9 15 -11 15 -7 2z"/>
<path d="M1783 5845 c0 -8 4 -12 9 -9 5 3 6 10 3 15 -9 13 -12 11 -12 -6z"/>
<path d="M1123 5832 c-3 -14 -11 -19 -21 -16 -14 5 -14 4 1 -6 9 -6 17 -18 17
-26 0 -8 5 -12 10 -9 6 4 7 12 3 18 -4 8 -1 7 9 -1 14 -11 16 -11 14 3 -1 9
-8 20 -15 25 -11 6 -11 8 0 12 10 3 10 6 0 12 -8 5 -14 1 -18 -12z"/>
<path d="M1983 5653 c4 -3 1 -13 -5 -22 -10 -13 -10 -14 2 -4 11 10 18 9 34
-5 15 -12 14 -9 -3 11 -14 15 -27 27 -29 27 -3 0 -2 -3 1 -7z"/>
<path d="M2031 5553 c-10 -26 -10 -27 4 -9 8 11 15 23 15 28 0 15 -7 8 -19
-19z"/>
<path d="M2081 5504 c0 -11 3 -14 6 -6 3 7 2 16 -1 19 -3 4 -6 -2 -5 -13z"/>
<path d="M4094 3875 c-17 -13 -17 -14 -1 -9 11 4 17 2 15 -6 -2 -7 3 -15 10
-17 8 -3 11 3 9 16 -5 30 -11 33 -33 16z"/>
<path d="M4296 3123 c-6 -14 -5 -15 5 -6 7 7 10 15 7 18 -3 3 -9 -2 -12 -12z"/>
<path d="M4153 2535 c0 -8 4 -12 9 -9 5 3 6 10 3 15 -9 13 -12 11 -12 -6z"/>
<path d="M4016 1931 c-4 -5 -2 -12 3 -15 5 -4 12 -2 15 3 4 5 2 12 -3 15 -5 4
-12 2 -15 -3z"/>
<path d="M3846 1571 c-4 -5 -2 -12 3 -15 5 -4 12 -2 15 3 4 5 2 12 -3 15 -5 4
-12 2 -15 -3z"/>
<path d="M3863 545 c0 -8 4 -12 9 -9 5 3 6 10 3 15 -9 13 -12 11 -12 -6z"/>
<path d="M3815 490 c-3 -5 1 -10 10 -10 9 0 13 5 10 10 -3 6 -8 10 -10 10 -2
0 -7 -4 -10 -10z"/>
<path d="M3805 460 c3 -5 8 -10 11 -10 2 0 4 5 4 10 0 6 -5 10 -11 10 -5 0 -7
-4 -4 -10z"/>
<path d="M3724 369 c-3 -6 -1 -16 5 -22 6 -6 11 -9 12 -6 0 2 2 12 4 22 4 19
-10 23 -21 6z"/>
</g>
</svg>
